<svg width="159" height="56" fill="none" xmlns="http://www.w3.org/2000/svg"><rect width="159" height="56" rx="4" fill="#E5ECF4"/><g clip-path="url(#clip0)" fill="#495567"><path d="M61 40h-5l-1 3h-3l4-14h5l3 14h-3v-3zm-5-3h4l-2-7-2 7zm11 10h-3V33h3v2l1-2h2a4 4 0 013 1l1 2 1 2-1 2-1 2a4 4 0 01-3 1h-1-1v-1h-1v5zm3-6l1-1 1-2-1-2-1-1-2 1-1 2 1 2 2 1zm8 6h-2V33h2v2h1l1-2h2a4 4 0 013 1l1 2v4l-1 2a4 4 0 01-3 1h-2l-1-1h-1v5zm3-6l2-1 1-2-1-2-2-1-2 1-1 2 1 2 2 1zm14-8l-1-1-2-1-1 1-1 1 1 1 2 1 3 1 1 3v2l-1 1-2 1h-4l-2-1-1-2v-2h2l1 2 2 1 2-1 1-1v-1h-1l-1-1h-3l-1-1-1-1-1-2a4 4 0 012-3l1-1h4l2 1 1 1v3h-2v-1zm4 0h3v-4h2v4h4v2h-4v5l1 1h2v2h-4-1v-8h-3v-2zm21 5v2a5 5 0 01-3 3 6 6 0 01-4 0l-2-1-1-2v-2-2a5 5 0 013-3 6 6 0 014 0 5 5 0 013 3v2zm-5 3h1l1-1v-1l1-1-1-1a2 2 0 00-1-2 3 3 0 00-3 1 3 3 0 00-1 2v1l1 1 1 1h1zm6-8h4v2h1l1-2h1l3 1 1 3h-3v-1l-2-1-1 1v5h2v2h-7v-2h2v-6h-2v-2zm14 6v1h1l1 1h2l1-1 2 1-1 1v1h-2-3l-2-1-1-2v-2-2a5 5 0 013-3h2a5 5 0 013 1l1 2 1 2v1h-8zm3-4a2 2 0 00-3 2h5l-1-1-1-1zM56 18h-2v1h-2l2-7h2l2 7h-1l-1-1zm-2-2h2l-1-3-1 3zm4-2h1l2 4 1-4h1l-1 5h-2l-2-5zm9 4v1h-1-1l-1-1v-2-1a2 2 0 012-1h1v1-1h2v5h-1v-1h-1zm-1 0h1v-2-1h-1-1v3h1zm4 0h2v-3h-2v-1h3v4h1v1h-4v-1zm3-5l-1 1v-1h-1a1 1 0 010-1h1a1 1 0 011 0v1zm2 5h2v-5h-1v-1h2v6h2v1h-5v-1zm9 0v1h-1-1l-1-1v-2-1a2 2 0 012-1h1v1-1h2v5h-1v-1h-1zm-1 0h1v-2-1h-1-1v3h1zm5 1h-1v-7h1v3l1-1h1a2 2 0 011 1h1v3h-1a2 2 0 01-1 1h-2v-1 1zm1-1h1l1-1v-1l-1-1h-1-1v3h1zm3 0h2v-5h-1v-1h2v6h2v1h-5v-1zm7-1l1 1h1l1-1 1 1h-1v1h-2l-1-1h-1v-2-1a2 2 0 013-1 2 2 0 011 1h1v2h-4zm1-2a1 1 0 00-1 1h3l-1-1h-1zm14 2v1a2 2 0 01-1 1 3 3 0 01-2 0l-1-1h-1v-2-1a2 2 0 012-1 3 3 0 012 0 2 2 0 011 1v2zm-2 1h1v-2a1 1 0 00-1-1 1 1 0 00-1 0 1 1 0 000 1v2h1zm4 1h-1v-5h1v1h1v-1h2l1 1v4h-1v-3l-1-1h-1l-1 1v3zm10-5h2v-2h1v2h2v1h-2v3h2v1h-3v-4h-2v-1zm8 5h-2v-7h2v2h2a1 1 0 011 1v4h-1v-3l-1-1h-1v4zm5-2v1h2v-1l1 1v1h-1-1-1l-1-1v-2-1a2 2 0 012-1 2 2 0 012 1h1v2h-4zm1-2a1 1 0 00-1 1h2v-1h-1z"/></g><path fill-rule="evenodd" clip-rule="evenodd" d="M30 16l4-2-2 4c-1 2-2 3-4 3l2-5zm4 5l5 2c-4 3-4 10 1 12l-2 3c-1 2-2 4-5 4l-2-1h-5l-2 1c-2 0-4-2-5-4-3-5-4-11-2-14l6-3h3l3 1 2-1h3z" fill="#495567"/><defs><clipPath id="clip0"><path fill="#fff" transform="translate(52 8)" d="M0 0h91v39H0z"/></clipPath></defs></svg>