<svg width="182" height="56" fill="none" xmlns="http://www.w3.org/2000/svg"><rect width="182" height="56" rx="4" fill="#E5ECF4"/><g clip-path="url(#clip0)" fill="#495567"><path d="M57 36h6v7h-2v-2h-1v2h-3-1l-2-1-1-2v-6-2l1-2 2-1h4a4 4 0 013 3v2h-2l-1-2-2-1-2 1v6c0 2 0 3 2 3l2-1 1-2h-4v-2zm18 2l-1 2a5 5 0 01-3 3 6 6 0 01-3 0l-2-1-1-2-1-2 1-2a5 5 0 013-3 6 6 0 013 0 5 5 0 013 3l1 2zm-6 3h1l1-1 1-1v-1-1a2 2 0 00-2-2 3 3 0 00-2 1 3 3 0 00-1 2v1l1 1v1h1zm17-3v2a5 5 0 01-3 3 6 6 0 01-4 0l-2-1-1-2v-2-2a5 5 0 013-3 6 6 0 014 0 5 5 0 013 3v2zm-5 3h1l1-1v-1-1-1a2 2 0 00-1-2 3 3 0 00-3 1 3 3 0 00-1 2v1l1 1 1 1h1zm14 1h-1l-1 1h-1-1-1a4 4 0 01-3-3v-2-2l1-2a4 4 0 013-1h2l1 2h1v-2h2v14h-8v-2h5l1-1v-2zm-3-1l2-1 1-2-1-2-2-1-2 1-1 2 1 2 2 1zm7 0h3V31h-3v-2h6v12h3v2h-9v-2zm14-2v1l1 1h2l1-1 2 1v1l-1 1h-5l-2-1-1-2v-2-2a5 5 0 015-3 5 5 0 014 1l1 2v3h-7zm2-4a2 2 0 00-2 2h4v-1l-2-1zm9 3v5h-2V29h7l1 1 1 2v2a4 4 0 01-1 2l-1 1-2 1h-3zm0-3h4l1-2-1-1h-4v3zm9 6h3V31h-3v-2h6v12h3v2h-9v-2zm18 1l-1 1h-4l-1-1-1-2v-2-2l1-2a4 4 0 013-1h2l1 1v-1h3v10h-2l-1-1zm-2-1l1-1 1-2-1-2-1-1-2 1-1 2 1 2 2 1zm13-8h3v14h-7v-2h4v-3l-3 1h-1l-1-1-1-1v-8h2v6l1 1 1 1 2-1v-7zM55 15h3v4h-2v-1 1h-2l-1-1-1-2v-1l1-2 1-1h2a2 2 0 011 1l1 1v1h-2v-1-1h-1l-1 1v2l1 2h1v-1h-1v-2zm5 2v1h1l1-1 1 1-1 1h-2l-1-1h-1v-2-1a2 2 0 013-1 2 2 0 012 1v2h-3zm1-2a1 1 0 00-1 1h2v-1h-1zm3-1h1v-2h2v2h2v1h-2v3h1v1h-2l-1-1v-3h-1v-1zm12 4h1v-3h-1v-1h3v4h1v1h-4v-1zm3-5h-1v0h-1a1 1 0 010-1h1a1 1 0 011 0v1zm2 1h1v-2h2v2h2v1h-2v3h1v1h-2l-1-1v-3h-1v-1zm16 3v1a2 2 0 01-1 1 3 3 0 01-2 0l-1-1h-1v-2-1a2 2 0 012-1 3 3 0 012 0 2 2 0 011 1v2zm-2 1h1v-2a1 1 0 00-1-1 1 1 0 00-1 0 1 1 0 00-1 1v1h1v1h1zm4 1h-1v-5h1v1h1v-1h2l1 1v4h-1v-3l-1-1h-1l-1 1v3z"/></g><path fill-rule="evenodd" clip-rule="evenodd" d="M17 14h3l13 8-3 4-13-12zm-1 2v-1l12 13-12 12V16zm14 13L17 41h3l13-8-3-4zm9-4l1 3-1 2-4 2-4-4 4-5 4 2z" fill="#495567"/><defs><clipPath id="clip0"><path fill="#fff" transform="translate(52 8)" d="M0 0h114v39H0z"/></clipPath></defs></svg>