<svg width="109" height="29" fill="none" xmlns="http://www.w3.org/2000/svg"><path fill-rule="evenodd" clip-rule="evenodd" d="M108 23v5h-9a3 3 0 01-3-3V13h-6V8h6V0h5v8h7v5h-7v9l1 1h6zm-98 6l6-2 2-5-2-4-5-2-4-1-1-1 1-1 2-1 2 1 2 1 4-1-1-2-1-2-3-1a10 10 0 00-8 1l-2 2-1 3 2 4 6 2h2l1 1h1v1l-1 1-2 1-3-1-2-2-4 1v2l2 2 3 2 4 1zm22 0c3 0 5-1 7-3 2-1 3-3 3-5l-5-2-1 4-4 1-2-1a5 5 0 01-3-2v-3-2l1-2a5 5 0 014-2l4 2 1 3 5-2c0-2-1-4-3-5-2-2-4-2-7-2h-4a10 10 0 00-6 10l1 5a9 9 0 005 5l4 1zm27-1a11 11 0 01-12-2l-2-3-1-5 1-4a10 10 0 016-6 11 11 0 0111 2l2 4 1 4-1 5a9 9 0 01-5 5zm-4-4l-2-1a5 5 0 01-4-5l1-3a5 5 0 013-2 6 6 0 015 1l1 1 1 3-1 3a5 5 0 01-2 2l-2 1zm26 4a11 11 0 01-11-2l-2-3-1-5 1-4a10 10 0 015-6 11 11 0 0112 2l2 4 1 4-1 5a9 9 0 01-6 5zm-4-4l-2-1a5 5 0 01-3-5v-3a5 5 0 013-2 6 6 0 016 1l1 1 1 3-1 3a5 5 0 01-3 2l-2 1z" fill="#fff"/></svg>