<svg width="96" height="96" fill="none" xmlns="http://www.w3.org/2000/svg"><circle cx="48" cy="48" r="48" fill="#FCB72B"/><path d="M45 62a1 1 0 00-1 1 1 1 0 001 1 1 1 0 001-1 1 1 0 00-1-1z" fill="#000"/><path fill-rule="evenodd" clip-rule="evenodd" d="M62 48l-2-8 1-1h4v-4l-1-1h-2l-1 1-2-1h-5l-1 1h-2a2 2 0 000 5h4v1a1 1 0 101 0v-1h2l2 9-4 7-2 1H44a7 7 0 00-11-4l-3 4h-1c0-6 5-10 11-10h6v8l1 1h5a5 5 0 004-5v-3-1l-1 1v3a3 3 0 01-3 3h-4v-7-1a2 2 0 00-2-4h-3v-7c0-2-2-3-3-3h-5a8 8 0 00-8 7v5l2 3 2 1c-2 3-4 6-4 10l1 1h4l2 3h-6a1 1 0 000 2h9a5 5 0 005-5h12l3-2h1a5 5 0 001 5H48a1 1 0 000 2h15a5 5 0 004-7h2c0-5-3-8-7-9zm-19-5h3a1 1 0 010 2h-3a1 1 0 010-2zm-14-3v5h11l1-1v-9l-1-1h-5c-3 0-5 2-6 4h9a1 1 0 110 2h-9zm2 7h1-1zm6 15c2 0 3-1 3-3h-6c0 2 1 3 3 3zm-5-5l2-3 3-1c3 0 5 2 5 4H32zm31-21h-1a1 1 0 000 2h1v-2zm-13 2l1-1h1v1h-2zm4 0h6v-2h-6v2zm12 21c0 2-2 3-3 3a3 3 0 01-3-5h5l1 2zm-5-9l-3 6h10c-1-3-3-6-7-6z" fill="#495567"/><path d="M56 46a1 1 0 100-2 1 1 0 100 2z" fill="#000"/></svg>