<svg width="76" height="20" fill="none" xmlns="http://www.w3.org/2000/svg"><path fill-rule="evenodd" clip-rule="evenodd" d="M75 16v4h-6a2 2 0 01-2-3V9h-4V6h4V0h3v6h6v3h-6v6l1 1h4zM6 20l5-1 1-4-1-3-4-1H5l-1-1 1-1h2l1 1 4-1-1-1-1-2H8a7 7 0 00-6 0L1 8v2l1 3 4 1h1l1 1h1v1H8l-2 1-2-1-1-1-3 1 1 1 1 2 2 1h2zm16 0l5-2 2-3-3-1-1 2-3 1-1-1a3 3 0 01-2-2l-1-1 1-2v-1a4 4 0 013-1l3 1 1 2 3-1-2-4-5-2-3 1a7 7 0 00-4 7v3a6 6 0 004 4h3zm19 0a8 8 0 01-8-2l-2-2v-4-3a7 7 0 014-3 8 8 0 018 1l1 2 1 3v1l-1 3a7 7 0 01-3 4zm-3-3l-2-1a3 3 0 01-2-3v-1-1a3 3 0 012-2 4 4 0 014 1l1 1 1 1v1l-1 1a3 3 0 01-2 2l-1 1zm18 3a8 8 0 01-7-2l-2-2v-4-3a7 7 0 014-3 8 8 0 018 1l1 2 1 3v1l-1 3a7 7 0 01-4 4zm-2-3l-2-1a3 3 0 01-2-3v-1-1a3 3 0 012-2 4 4 0 014 1l1 1v3a3 3 0 01-2 2l-1 1z" fill="#495567"/></svg>